<svg width="59" height="59" viewBox="0 0 59 59" fill="none" xmlns="http://www.w3.org/2000/svg">
<path d="M45.1532 0.15625H13.9755C6.37895 0.15625 0.220703 6.3145 0.220703 13.9111V45.0887C0.220703 52.6853 6.37895 58.8435 13.9755 58.8435H45.1532C52.7498 58.8435 58.908 52.6853 58.908 45.0887V13.9111C58.908 6.3145 52.7498 0.15625 45.1532 0.15625Z" fill="url(#paint0_radial_340_7277)"/>
<path d="M45.1532 0.15625H13.9755C6.37895 0.15625 0.220703 6.3145 0.220703 13.9111V45.0887C0.220703 52.6853 6.37895 58.8435 13.9755 58.8435H45.1532C52.7498 58.8435 58.908 52.6853 58.908 45.0887V13.9111C58.908 6.3145 52.7498 0.15625 45.1532 0.15625Z" fill="url(#paint1_radial_340_7277)"/>
<path d="M29.5655 6.57422C23.3396 6.57422 22.5581 6.6015 20.1129 6.71268C17.6723 6.82456 16.0064 7.21084 14.5488 7.77777C13.0409 8.36326 11.7619 9.1466 10.4877 10.4212C9.21243 11.6956 8.42909 12.9746 7.84176 14.4819C7.27323 15.9399 6.88649 17.6065 6.77668 20.0459C6.66733 22.4913 6.63867 23.2731 6.63867 29.4992C6.63867 35.7253 6.66618 36.5043 6.77714 38.9494C6.88947 41.39 7.27575 43.0559 7.84222 44.5135C8.42818 46.0215 9.21151 47.3005 10.4861 48.5746C11.7601 49.8499 13.039 50.6351 14.5459 51.2206C16.0046 51.7875 17.6707 52.1738 20.1108 52.2857C22.5562 52.3969 23.337 52.4241 29.5627 52.4241C35.7893 52.4241 36.5683 52.3969 39.0134 52.2857C41.454 52.1738 43.1218 51.7875 44.5805 51.2206C46.0878 50.6351 47.3649 49.8499 48.6386 48.5746C49.9139 47.3005 50.697 46.0215 51.2846 44.5142C51.8481 43.0559 52.235 41.3895 52.3497 38.9499C52.4595 36.5047 52.4881 35.7253 52.4881 29.4992C52.4881 23.2731 52.4595 22.4918 52.3497 20.0464C52.235 17.6058 51.8481 15.9401 51.2846 14.4826C50.697 12.9746 49.9139 11.6956 48.6386 10.4212C47.3635 9.14614 46.0882 8.36281 44.5791 7.778C43.1176 7.21084 41.4508 6.82433 39.0102 6.71268C36.5648 6.6015 35.7863 6.57422 29.5584 6.57422H29.5655ZM27.5089 10.7055C28.1194 10.7046 28.8005 10.7055 29.5655 10.7055C35.6866 10.7055 36.4119 10.7275 38.8291 10.8373C41.0643 10.9395 42.2775 11.313 43.0855 11.6268C44.1554 12.0422 44.9182 12.539 45.7201 13.3416C46.5224 14.144 47.019 14.908 47.4355 15.9779C47.7494 16.7849 48.1233 17.9981 48.225 20.2332C48.3349 22.65 48.3587 23.3758 48.3587 29.4939C48.3587 35.6121 48.3349 36.3381 48.225 38.7546C48.1228 40.9897 47.7494 42.2029 47.4355 43.0101C47.0201 44.08 46.5224 44.8418 45.7201 45.6437C44.9177 46.4461 44.1559 46.9426 43.0855 47.3582C42.2784 47.6734 41.0643 48.046 38.8291 48.1482C36.4124 48.258 35.6866 48.2819 29.5655 48.2819C23.4441 48.2819 22.7185 48.258 20.302 48.1482C18.0669 48.0451 16.8537 47.6716 16.0449 47.3578C14.9752 46.9421 14.2109 46.4456 13.4086 45.6432C12.6062 44.8409 12.1097 44.0786 11.6931 43.0083C11.3793 42.2011 11.0054 40.9879 10.9036 38.7527C10.7938 36.336 10.7718 35.6102 10.7718 29.4882C10.7718 23.3661 10.7938 22.6442 10.9036 20.2275C11.0058 17.9923 11.3793 16.7792 11.6931 15.9711C12.1087 14.9012 12.6062 14.1371 13.4088 13.3347C14.2114 12.5324 14.9752 12.0356 16.0451 11.6193C16.8532 11.304 18.0669 10.9315 20.302 10.8288C22.4168 10.7332 23.2364 10.7046 27.5089 10.6998V10.7055ZM41.8027 14.5119C40.2839 14.5119 39.0517 15.743 39.0517 17.262C39.0517 18.7807 40.2839 20.0129 41.8027 20.0129C43.3214 20.0129 44.5536 18.7807 44.5536 17.262C44.5536 15.7432 43.3214 14.511 41.8027 14.511V14.5119ZM29.5655 17.7262C23.064 17.7262 17.7927 22.9975 17.7927 29.4992C17.7927 36.0009 23.064 41.2696 29.5655 41.2696C36.0671 41.2696 41.3366 36.0009 41.3366 29.4992C41.3366 22.9977 36.0667 17.7262 29.565 17.7262H29.5655ZM29.5655 21.8574C33.7857 21.8574 37.2072 25.2785 37.2072 29.4992C37.2072 33.7194 33.7857 37.1409 29.5655 37.1409C25.3452 37.1409 21.924 33.7194 21.924 29.4992C21.924 25.2785 25.345 21.8574 29.5655 21.8574Z" fill="white"/>
<defs>
<radialGradient id="paint0_radial_340_7277" cx="0" cy="0" r="1" gradientUnits="userSpaceOnUse" gradientTransform="translate(15.8095 63.3636) rotate(-90) scale(58.1635 54.0966)">
<stop stop-color="#FFDD55"/>
<stop offset="0.1" stop-color="#FFDD55"/>
<stop offset="0.5" stop-color="#FF543E"/>
<stop offset="1" stop-color="#C837AB"/>
</radialGradient>
<radialGradient id="paint1_radial_340_7277" cx="0" cy="0" r="1" gradientUnits="userSpaceOnUse" gradientTransform="translate(-9.60965 4.3838) rotate(78.681) scale(25.9994 107.17)">
<stop stop-color="#3771C8"/>
<stop offset="0.128" stop-color="#3771C8"/>
<stop offset="1" stop-color="#6600FF" stop-opacity="0"/>
</radialGradient>
</defs>
</svg>
