<svg width="83" height="59" viewBox="0 0 83 59" fill="none" xmlns="http://www.w3.org/2000/svg">
<g clip-path="url(#clip0_340_7268)">
<path d="M80.3789 9.53835C79.9076 7.76911 78.9884 6.15615 77.7126 4.86009C76.4368 3.56403 74.8491 2.63008 73.1076 2.15125C66.7316 0.384766 41.0707 0.384766 41.0707 0.384766C41.0707 0.384766 15.4085 0.438236 9.03257 2.20472C7.29095 2.68358 5.70321 3.61757 4.42745 4.9137C3.15169 6.20982 2.23243 7.82285 1.76121 9.59215C-0.167354 21.1007 -0.91548 38.6371 1.81417 49.6854C2.28544 51.4546 3.20472 53.0676 4.48048 54.3636C5.75623 55.6597 7.34395 56.5936 9.08552 57.0725C15.4614 58.839 41.123 58.839 41.123 58.839C41.123 58.839 66.7843 58.839 73.1599 57.0725C74.9015 56.5937 76.4893 55.6598 77.7651 54.3637C79.0409 53.0676 79.9602 51.4546 80.4315 49.6854C82.4657 38.1605 83.0925 20.6348 80.3789 9.53835Z" fill="#FF0000"/>
<path d="M32.9043 42.1356L54.192 29.6098L32.9043 17.084V42.1356Z" fill="white"/>
</g>
<defs>
<clipPath id="clip0_340_7268">
<rect width="82.8143" height="58.2288" fill="white" transform="translate(0.03125 0.384766)"/>
</clipPath>
</defs>
</svg>
