<svg width="59" height="59" viewBox="0 0 59 59" fill="none" xmlns="http://www.w3.org/2000/svg">
<g clip-path="url(#clip0_340_7265)">
<path d="M29.3436 0.15625C21.563 0.15625 14.0941 3.24971 8.59677 8.75073C3.09379 14.254 0.00157469 21.7173 0 29.4999C0 37.2792 3.09484 44.7481 8.59677 50.2491C14.0941 55.7501 21.563 58.8435 29.3436 58.8435C37.1243 58.8435 44.5932 55.7501 50.0905 50.2491C55.5925 44.7481 58.6873 37.2792 58.6873 29.4999C58.6873 21.7206 55.5925 14.2517 50.0905 8.75073C44.5932 3.24971 37.1243 0.15625 29.3436 0.15625Z" fill="url(#paint0_linear_340_7265)"/>
<path d="M13.2821 29.1895C21.8376 25.4629 27.5413 23.006 30.3931 21.8188C38.5451 18.4291 40.237 17.8404 41.3419 17.8205C41.5849 17.8166 42.126 17.8767 42.479 18.1621C42.7724 18.4028 42.855 18.7283 42.8962 18.9569C42.9329 19.1852 42.9834 19.7056 42.9421 20.1118C42.5019 24.7518 40.59 36.0115 39.618 41.2085C39.2099 43.4075 38.3984 44.1447 37.6144 44.2167C35.9088 44.3735 34.6158 43.0906 32.9653 42.0091C30.3839 40.3158 28.9259 39.2622 26.4179 37.6103C23.5203 35.7011 25.4001 34.6516 27.0507 32.9368C27.4817 32.488 34.9918 25.6587 35.1339 25.0393C35.1523 24.9618 35.1706 24.6729 34.9964 24.5207C34.8267 24.368 34.5746 24.4203 34.3912 24.4616C34.1298 24.5202 30.008 27.2474 22.0118 32.6425C20.8427 33.4467 19.7835 33.8387 18.8299 33.818C17.7845 33.7956 15.7671 33.2257 14.2678 32.7388C12.4339 32.1413 10.9713 31.8254 11.0996 30.8108C11.1638 30.2826 11.8928 29.742 13.2821 29.1895Z" fill="white"/>
</g>
<defs>
<linearGradient id="paint0_linear_340_7265" x1="2934.36" y1="0.15625" x2="2934.36" y2="5868.89" gradientUnits="userSpaceOnUse">
<stop stop-color="#2AABEE"/>
<stop offset="1" stop-color="#229ED9"/>
</linearGradient>
<clipPath id="clip0_340_7265">
<rect width="58.6873" height="58.6873" fill="white" transform="translate(0 0.15625)"/>
</clipPath>
</defs>
</svg>
