<svg width="59" height="59" viewBox="0 0 59 59" fill="none" xmlns="http://www.w3.org/2000/svg">
<g clip-path="url(#clip0_340_7288)">
<path d="M58.9998 29.4999C58.9998 13.294 45.8621 0.15625 29.6561 0.15625C13.4502 0.15625 0.3125 13.294 0.3125 29.4999C0.3125 44.1461 11.0431 56.2858 25.0712 58.4871V37.9821H17.6207V29.4999H25.0712V23.0351C25.0712 15.6809 29.4521 11.6186 36.1549 11.6186C39.3652 11.6186 42.7232 12.1917 42.7232 12.1917V19.413H39.0232C35.3779 19.413 34.2411 21.675 34.2411 23.9957V29.4999H42.3794L41.0784 37.9821H34.2411V58.4871C48.2692 56.2858 58.9998 44.1463 58.9998 29.4999Z" fill="#1877F2"/>
<path d="M41.0808 37.9806L42.3818 29.4985H34.2435V23.9942C34.2435 21.6733 35.3803 19.4116 39.0256 19.4116H42.7256V12.1903C42.7256 12.1903 39.3676 11.6172 36.157 11.6172C29.4545 11.6172 25.0736 15.6794 25.0736 23.0337V29.4985H17.623V37.9806H25.0736V58.4856C26.5903 58.7233 28.1233 58.8425 29.6585 58.8421C31.1938 58.8425 32.7267 58.7233 34.2435 58.4856V37.9806H41.0808Z" fill="white"/>
</g>
<defs>
<clipPath id="clip0_340_7288">
<rect width="58.6873" height="58.6873" fill="white" transform="translate(0.3125 0.15625)"/>
</clipPath>
</defs>
</svg>
