<svg width="51" height="58" viewBox="0 0 51 58" fill="none" xmlns="http://www.w3.org/2000/svg">
<g clip-path="url(#clip0_340_7273)">
<path d="M37.4054 21.2881C41.0756 23.9887 45.5719 25.5777 50.4279 25.5777V15.9591C49.5088 15.9595 48.5922 15.8607 47.6931 15.6644V23.2357C42.8374 23.2357 38.3417 21.6469 34.6708 18.9465V38.5756C34.6708 48.3952 26.9374 56.3548 17.3986 56.3548C13.8395 56.3548 10.5312 55.2472 7.7832 53.3476C10.9197 56.6488 15.2937 58.6966 20.1327 58.6966C29.6723 58.6966 37.4058 50.737 37.4058 40.917V21.2881H37.4054ZM40.7793 11.5841C38.9035 9.47475 37.6719 6.74883 37.4054 3.73513V2.49805H34.8138C35.4662 6.3283 37.6915 9.60063 40.7793 11.5841ZM13.8165 45.8125C12.7684 44.3983 12.2019 42.6679 12.2046 40.8888C12.2046 36.3979 15.7418 32.7564 20.1058 32.7564C20.9189 32.7559 21.7273 32.8845 22.5024 33.1375V23.3037C21.5966 23.176 20.6825 23.1216 19.7688 23.1416V30.7956C18.9932 30.5426 18.1845 30.4141 17.3709 30.4148C13.0071 30.4148 9.47014 34.0558 9.47014 38.5474C9.47014 41.7234 11.238 44.473 13.8165 45.8125Z" fill="#FF004F"/>
<path d="M34.6676 18.9463C38.3388 21.6467 42.8341 23.2355 47.6899 23.2355V15.6642C44.9794 15.0699 42.58 13.612 40.776 11.5841C37.688 9.60043 35.4631 6.3281 34.8107 2.49805H28.0034V40.9166C27.9879 45.3954 24.4568 49.0219 20.1022 49.0219C17.5364 49.0219 15.2566 47.763 13.8129 45.8123C11.2349 44.473 9.46682 41.7232 9.46682 38.5476C9.46682 34.0564 13.0038 30.415 17.3676 30.415C18.2037 30.415 19.0095 30.549 19.7655 30.7958V23.1418C10.3941 23.3411 2.85742 31.2231 2.85742 40.9168C2.85742 45.7558 4.73417 50.1426 7.78028 53.348C10.5283 55.2472 13.8363 56.3552 17.3957 56.3552C26.9347 56.3552 34.6678 48.395 34.6678 38.5756L34.6676 18.9463Z" fill="white"/>
<path d="M47.6902 15.6639V13.6171C45.246 13.6207 42.8501 12.9162 40.7762 11.5839C42.6119 13.6525 45.0291 15.0791 47.6902 15.6643M34.8108 2.49767C34.7486 2.1317 34.7009 1.76329 34.6677 1.39334V0.15625H25.2685V38.5752C25.2535 43.0536 21.7225 46.6801 17.3677 46.6801C16.1331 46.682 14.9155 46.3848 13.813 45.8125C15.2567 47.7628 17.5365 49.0215 20.1023 49.0215C24.4567 49.0215 27.9882 45.3955 28.0035 40.9166V2.49787L34.8108 2.49767ZM19.7661 23.1414V20.9621C18.9807 20.8517 18.1889 20.7964 17.3962 20.7966C7.85621 20.7966 0.123047 28.7566 0.123047 38.5752C0.123047 44.7311 3.16228 50.1562 7.78076 53.3474C4.73465 50.1422 2.8579 45.7553 2.8579 40.9164C2.8579 31.2229 10.3944 23.3408 19.7661 23.1414Z" fill="#00F2EA"/>
</g>
<defs>
<clipPath id="clip0_340_7273">
<rect width="50.3034" height="56.9843" fill="white" transform="translate(0.123047 0.15625)"/>
</clipPath>
</defs>
</svg>
