<svg width="59" height="59" viewBox="0 0 59 59" fill="none" xmlns="http://www.w3.org/2000/svg">
<g clip-path="url(#clip0_340_7281)">
<path d="M45.1825 0.15625H14.0048C6.40825 0.15625 0.25 6.3145 0.25 13.9111V45.0887C0.25 52.6853 6.40825 58.8435 14.0048 58.8435H45.1825C52.779 58.8435 58.9373 52.6853 58.9373 45.0887V13.9111C58.9373 6.3145 52.779 0.15625 45.1825 0.15625Z" fill="white"/>
<path d="M45.1825 0.15625H14.0048C6.40825 0.15625 0.25 6.3145 0.25 13.9111V45.0887C0.25 52.6853 6.40825 58.8435 14.0048 58.8435H45.1825C52.779 58.8435 58.9373 52.6853 58.9373 45.0887V13.9111C58.9373 6.3145 52.779 0.15625 45.1825 0.15625Z" fill="#0A66C2"/>
<path d="M42.593 50.0595H49.3031C49.5462 50.0595 49.7794 49.9629 49.9514 49.791C50.1234 49.6191 50.22 49.3859 50.2201 49.1427L50.2235 34.9656C50.2235 27.5557 48.6268 21.86 39.9674 21.86C36.6757 21.7376 33.5714 23.4345 31.8963 26.268C31.8881 26.2817 31.8757 26.2924 31.8608 26.2985C31.846 26.3045 31.8296 26.3055 31.8141 26.3013C31.7987 26.2971 31.785 26.288 31.7752 26.2753C31.7654 26.2626 31.7601 26.2471 31.7599 26.2311V23.4611C31.7599 23.2179 31.6633 22.9846 31.4913 22.8127C31.3194 22.6407 31.0861 22.5441 30.8429 22.5441H24.4751C24.2319 22.5441 23.9987 22.6407 23.8267 22.8127C23.6548 22.9846 23.5581 23.2179 23.5581 23.4611V49.1413C23.5581 49.3845 23.6548 49.6178 23.8267 49.7898C23.9987 49.9617 24.2319 50.0583 24.4751 50.0583H31.1847C31.4279 50.0583 31.6612 49.9617 31.8331 49.7898C32.0051 49.6178 32.1017 49.3845 32.1017 49.1413V36.4472C32.1017 32.8579 32.7826 29.3818 37.2325 29.3818C41.6192 29.3818 41.676 33.489 41.676 36.6797V49.1425C41.676 49.3857 41.7726 49.6189 41.9446 49.7909C42.1166 49.9629 42.3498 50.0595 42.593 50.0595ZM8.95898 13.8253C8.95898 16.5451 11.198 18.783 13.9181 18.783C16.6374 18.7828 18.8751 16.5435 18.8751 13.8242C18.8746 11.1049 16.6367 8.86719 13.9171 8.86719C11.1969 8.86719 8.95898 11.1056 8.95898 13.8253ZM10.5543 50.0595H17.2729C17.5161 50.0595 17.7493 49.9629 17.9213 49.7909C18.0932 49.6189 18.1899 49.3857 18.1899 49.1425V23.4611C18.1899 23.2179 18.0932 22.9846 17.9213 22.8127C17.7493 22.6407 17.5161 22.5441 17.2729 22.5441H10.5543C10.3111 22.5441 10.0779 22.6407 9.90591 22.8127C9.73394 22.9846 9.63733 23.2179 9.63733 23.4611V49.1425C9.63733 49.3857 9.73394 49.6189 9.90591 49.7909C10.0779 49.9629 10.3111 50.0595 10.5543 50.0595Z" fill="white"/>
</g>
<defs>
<clipPath id="clip0_340_7281">
<rect width="58.6873" height="58.6873" fill="white" transform="translate(0.25 0.15625)"/>
</clipPath>
</defs>
</svg>
